<svg xmlns="http://www.w3.org/2000/svg" viewBox="0 0 1280 760" font-family="system-ui,'Segoe UI',Roboto,sans-serif">
  <rect width="1280" height="760" fill="#ffffff"/>

  <!-- ============================ SIDEBAR ============================ -->
  <rect x="12" y="12" width="290" height="736" rx="6" fill="#f4f5f7" stroke="#cbd5e1"/>
  <text x="28" y="40" font-size="16" font-weight="bold" fill="#111827">Situation réseau</text>

  <!-- (1) two tabs + single Charger -->
  <rect x="28" y="50" width="128" height="26" rx="4" fill="#e9eef5" stroke="#bfdbfe"/>
  <text x="92" y="67" font-size="12" fill="#334155" text-anchor="middle">📁 Local</text>
  <rect x="156" y="50" width="120" height="26" rx="4" fill="#2563eb"/>
  <text x="216" y="67" font-size="12" fill="#ffffff" text-anchor="middle" font-weight="bold">📅 RTE7000</text>
  <rect x="28" y="82" width="248" height="26" rx="5" fill="#eef6ff" stroke="#bfdbfe"/>
  <text x="152" y="99" font-size="12" fill="#1e3a8a" text-anchor="middle">date · heure · ⚡ cas d'intérêt ⓘ</text>
  <rect x="28" y="114" width="248" height="28" rx="5" fill="#2563eb"/>
  <text x="152" y="133" font-size="13" fill="#ffffff" text-anchor="middle" font-weight="bold">⏬ Charger la situation</text>

  <line x1="28" y1="156" x2="276" y2="156" stroke="#d1d5db"/>

  <!-- (10) section title + Recharger -->
  <text x="28" y="178" font-size="14" font-weight="bold" fill="#1e3a8a">🗺 Scénario Topologique</text>
  <rect x="206" y="164" width="70" height="20" rx="4" fill="#ffffff" stroke="#94a3b8"/>
  <text x="241" y="178" font-size="10" fill="#334155" text-anchor="middle">⟳ Recharger</text>

  <!-- (2) unified Poste search + typology -->
  <text x="28" y="206" font-size="13" font-weight="bold" fill="#1e3a8a">1 · Poste</text>
  <rect x="28" y="214" width="248" height="26" rx="5" fill="#ffffff" stroke="#94a3b8"/>
  <text x="40" y="231" font-size="12" fill="#64748b">🔎 rechercher un poste (tous) · ↓ liste par typologie</text>
  <rect x="28" y="246" width="248" height="24" rx="5" fill="#ffffff" stroke="#cbd5e1"/>
  <text x="40" y="262" font-size="11" fill="#64748b">📂 explorer par typologie…</text>

  <!-- (6) validate target -->
  <text x="28" y="296" font-size="13" font-weight="bold" fill="#1e3a8a">2 · Topologie cible</text>
  <rect x="28" y="304" width="248" height="26" rx="5" fill="#ffffff" stroke="#94a3b8"/>
  <text x="152" y="321" font-size="12" fill="#111827" text-anchor="middle">✓ Valider &amp; sauvegarder</text>

  <!-- (7) sequence: mode + compute / manual -->
  <text x="28" y="356" font-size="13" font-weight="bold" fill="#1e3a8a">3 · Séquence de manœuvres</text>
  <rect x="28" y="364" width="120" height="22" rx="4" fill="#ffffff" stroke="#cbd5e1"/>
  <text x="88" y="379" font-size="10" fill="#334155" text-anchor="middle">⦿ smooth</text>
  <rect x="156" y="364" width="120" height="22" rx="4" fill="#ffffff" stroke="#cbd5e1"/>
  <text x="216" y="379" font-size="10" fill="#334155" text-anchor="middle">○ agressif</text>
  <rect x="28" y="392" width="248" height="26" rx="5" fill="#2563eb"/>
  <text x="152" y="409" font-size="12" fill="#ffffff" text-anchor="middle" font-weight="bold">⚙ Calculer la séquence</text>
  <rect x="28" y="424" width="248" height="26" rx="5" fill="#7c3aed"/>
  <text x="152" y="441" font-size="12" fill="#ffffff" text-anchor="middle" font-weight="bold">✋ Séquence manuelle</text>

  <!-- ============================ CENTRE ============================ -->
  <!-- departure pane (3) -->
  <rect x="312" y="12" width="660" height="350" rx="4" fill="#ffffff" stroke="#c7d2fe"/>
  <rect x="312" y="12" width="660" height="28" fill="#eef2ff"/>
  <text x="324" y="31" font-size="12" font-weight="bold" fill="#1e293b">Topologie de départ — 1 nœud (lecture seule)</text>
  <rect x="846" y="16" width="118" height="20" rx="4" fill="#ffffff" stroke="#94a3b8"/>
  <text x="905" y="30" font-size="10" fill="#334155" text-anchor="middle">↺ État d'origine</text>
  <!-- SLD sketch: single purple node -->
  <g stroke-width="5" stroke="#7c3aed"><line x1="360" y1="240" x2="924" y2="240"/></g>
  <g stroke="#475569" stroke-width="1.4">
    <line x1="430" y1="120" x2="430" y2="240"/><line x1="560" y1="120" x2="560" y2="240"/>
    <line x1="700" y1="120" x2="700" y2="240"/><line x1="840" y1="120" x2="840" y2="240"/>
    <line x1="500" y1="240" x2="500" y2="330"/><line x1="770" y1="240" x2="770" y2="330"/>
  </g>
  <text x="430" y="112" font-size="9" fill="#334155" text-anchor="middle">U.MON1</text>
  <text x="560" y="112" font-size="9" fill="#334155" text-anchor="middle">VALES1</text>
  <text x="700" y="112" font-size="9" fill="#334155" text-anchor="middle">V.PAU1</text>
  <text x="840" y="112" font-size="9" fill="#334155" text-anchor="middle">RANTI1</text>

  <!-- target pane (4) -->
  <rect x="312" y="372" width="660" height="288" rx="4" fill="#ffffff" stroke="#fed7aa"/>
  <rect x="312" y="372" width="660" height="28" fill="#fff7ed"/>
  <text x="324" y="391" font-size="12" font-weight="bold" fill="#1e293b">Topologie cible (éditable — clic organe) — 3 nœuds</text>
  <rect x="788" y="376" width="176" height="20" rx="4" fill="#ffffff" stroke="#94a3b8"/>
  <text x="876" y="390" font-size="10" fill="#334155" text-anchor="middle">⇧ Nouvelle Topologie Départ</text>
  <!-- SLD sketch: three coloured nodes -->
  <g stroke-width="5"><line x1="360" y1="560" x2="640" y2="560" stroke="#7c3aed"/>
    <line x1="652" y1="560" x2="800" y2="560" stroke="#9f1239"/>
    <line x1="812" y1="560" x2="924" y2="560" stroke="#38bdf8"/></g>
  <g stroke="#475569" stroke-width="1.4">
    <line x1="430" y1="450" x2="430" y2="560"/><line x1="560" y1="450" x2="560" y2="560"/>
    <line x1="700" y1="450" x2="700" y2="560"/><line x1="860" y1="450" x2="860" y2="560"/>
    <line x1="500" y1="560" x2="500" y2="630"/><line x1="770" y1="560" x2="770" y2="630"/></g>
  <text x="430" y="442" font-size="9" fill="#334155" text-anchor="middle">U.MON1</text>
  <text x="560" y="442" font-size="9" fill="#334155" text-anchor="middle">VALES1</text>
  <text x="700" y="442" font-size="9" fill="#334155" text-anchor="middle">V.PAU1</text>
  <text x="860" y="442" font-size="9" fill="#334155" text-anchor="middle">RANTI1</text>

  <!-- sequence + animation strip (9) -->
  <rect x="312" y="672" width="660" height="76" rx="4" fill="#ffffff" stroke="#e5e7eb"/>
  <text x="324" y="690" font-size="11" fill="#334155">◀ ▶ Lecture ▶|  ·  Étape 3/8  ·  ✎ Modifier la cible</text>
  <rect x="838" y="678" width="126" height="20" rx="4" fill="#ffffff" stroke="#94a3b8"/>
  <text x="901" y="692" font-size="10" fill="#334155" text-anchor="middle">💾 Sauvegarder la séquence</text>
  <text x="324" y="712" font-size="10" font-family="monospace" fill="#111827">1 OPEN CARRI3COUPL.1 DJ_OC  ouverture du couplage</text>
  <rect x="320" y="717" width="640" height="13" fill="#fde68a" opacity="0.5"/>
  <text x="324" y="727" font-size="10" font-family="monospace" fill="#111827">3 OPEN PERSAL31CARRI SA.1  boucle courte  ← étape courante</text>
  <text x="324" y="742" font-size="10" font-family="monospace" fill="#b91c1c">⚠ R18 — un sectionneur ne se manœuvre que hors charge</text>

  <!-- ============================ NODAL (RIGHT) ============================ -->
  <rect x="982" y="12" width="286" height="736" rx="6" fill="#f4f5f7" stroke="#cbd5e1"/>
  <text x="998" y="32" font-size="13" font-weight="bold" fill="#065f46">Topologie nodale</text>

  <!-- departure node (5) -->
  <rect x="996" y="44" width="258" height="96" rx="5" fill="#ffffff" stroke="#d1fae5"/>
  <text x="1008" y="62" font-size="11" font-weight="bold" fill="#065f46">Départ — 1 nœud (lecture seule)</text>
  <line x1="1018" y1="110" x2="1238" y2="110" stroke="#7c3aed" stroke-width="6"/>
  <text x="1024" y="100" font-size="8" fill="#334155">U.MON1</text>
  <text x="1110" y="100" font-size="8" fill="#334155">VALES1</text>
  <text x="1196" y="100" font-size="8" fill="#334155">RANTI1</text>

  <!-- target nodes (3) -->
  <rect x="996" y="156" width="258" height="356" rx="5" fill="#ffffff" stroke="#d1fae5"/>
  <text x="1008" y="174" font-size="11" font-weight="bold" fill="#065f46">Cible — 3 nœuds (éditable, glisser-déposer)</text>
  <rect x="1008" y="182" width="56" height="18" rx="3" fill="#ffffff" stroke="#94a3b8"/>
  <text x="1036" y="195" font-size="9" fill="#334155" text-anchor="middle">+ Nœud</text>
  <rect x="1070" y="182" width="60" height="18" rx="3" fill="#ffffff" stroke="#94a3b8"/>
  <text x="1100" y="195" font-size="9" fill="#334155" text-anchor="middle">= départ</text>
  <rect x="1136" y="182" width="58" height="18" rx="3" fill="#ffffff" stroke="#94a3b8"/>
  <text x="1165" y="195" font-size="9" fill="#334155" text-anchor="middle">∅ Désél.</text>
  <text x="1008" y="236" font-size="9" fill="#334155">N0 (barre 1)</text>
  <line x1="1018" y1="246" x2="1238" y2="246" stroke="#7c3aed" stroke-width="6"/>
  <text x="1008" y="312" font-size="9" fill="#334155">N1 (barre 2.1)</text>
  <line x1="1018" y1="322" x2="1180" y2="322" stroke="#9f1239" stroke-width="6"/>
  <text x="1008" y="392" font-size="9" fill="#334155">N2 (barre 2.2)</text>
  <line x1="1060" y1="402" x2="1238" y2="402" stroke="#38bdf8" stroke-width="6"/>

  <!-- compute detailed target (8) -->
  <rect x="996" y="528" width="258" height="30" rx="5" fill="#ecfdf5" stroke="#6ee7b7"/>
  <text x="1125" y="547" font-size="10" fill="#065f46" text-anchor="middle" font-weight="bold">⚙ Calculer la topologie détaillée d'intérêt</text>

  <!-- ============================ CALLOUTS (red numbered circles) ============================ -->
  <g font-size="13" font-weight="bold" text-anchor="middle">
    <circle cx="284" cy="63" r="12" fill="#dc2626"/><text x="284" y="68" fill="#fff">1</text>
    <circle cx="262" cy="227" r="12" fill="#dc2626"/><text x="262" y="232" fill="#fff">2</text>
    <circle cx="332" cy="26" r="12" fill="#dc2626"/><text x="332" y="31" fill="#fff">3</text>
    <circle cx="332" cy="386" r="12" fill="#dc2626"/><text x="332" y="391" fill="#fff">4</text>
    <circle cx="1244" cy="110" r="12" fill="#dc2626"/><text x="1244" y="115" fill="#fff">5</text>
    <circle cx="262" cy="317" r="12" fill="#dc2626"/><text x="262" y="322" fill="#fff">6</text>
    <circle cx="262" cy="405" r="12" fill="#dc2626"/><text x="262" y="410" fill="#fff">7</text>
    <circle cx="1010" cy="543" r="12" fill="#dc2626"/><text x="1010" y="548" fill="#fff">8</text>
    <circle cx="332" cy="724" r="12" fill="#dc2626"/><text x="332" y="729" fill="#fff">9</text>
    <circle cx="258" cy="174" r="12" fill="#dc2626"/><text x="258" y="179" fill="#fff">10</text>
  </g>
</svg>
