<svg xmlns="http://www.w3.org/2000/svg" viewBox="0 0 1280 760" font-family="system-ui,'Segoe UI',Roboto,sans-serif">
  <rect width="1280" height="760" fill="#ffffff"/>

  <!-- ============================ SIDEBAR ============================ -->
  <rect x="12" y="12" width="268" height="736" rx="6" fill="#f4f5f7" stroke="#cbd5e1"/>
  <text x="28" y="40" font-size="16" font-weight="bold" fill="#111827">Situation réseau</text>

  <!-- RTE7000 tab + date/heure -->
  <rect x="28" y="50" width="118" height="26" rx="4" fill="#e9eef5" stroke="#bfdbfe"/>
  <text x="87" y="67" font-size="12" fill="#334155" text-anchor="middle">📁 Local</text>
  <rect x="148" y="50" width="106" height="26" rx="4" fill="#2563eb"/>
  <text x="201" y="67" font-size="12" fill="#ffffff" text-anchor="middle" font-weight="bold">📅 RTE7000</text>
  <rect x="28" y="82" width="226" height="26" rx="5" fill="#eef6ff" stroke="#bfdbfe"/>
  <text x="141" y="99" font-size="12" fill="#1e3a8a" text-anchor="middle">date 2021-01-03 · heure ▾</text>

  <!-- (1) Explorer la journée -->
  <rect x="28" y="116" width="226" height="30" rx="5" fill="#0e7490"/>
  <text x="141" y="136" font-size="13" fill="#ffffff" text-anchor="middle" font-weight="bold">🗺 Explorer la journée</text>

  <line x1="28" y1="162" x2="254" y2="162" stroke="#d1d5db"/>

  <!-- Poste search (usable in map mode) -->
  <text x="28" y="184" font-size="13" font-weight="bold" fill="#1e3a8a">1 · Poste</text>
  <rect x="28" y="192" width="226" height="26" rx="5" fill="#ffffff" stroke="#94a3b8"/>
  <text x="40" y="209" font-size="11" fill="#64748b">🔎 rechercher (actif sur la carte)</text>

  <text x="28" y="246" font-size="14" font-weight="bold" fill="#1e3a8a">🗺 Scénario Topologique</text>
  <rect x="184" y="232" width="70" height="20" rx="4" fill="#ffffff" stroke="#94a3b8"/>
  <text x="219" y="246" font-size="10" fill="#334155" text-anchor="middle">⟳ Recharger</text>

  <!-- mini help -->
  <rect x="28" y="268" width="226" height="84" rx="5" fill="#ffffff" stroke="#e2e8f0"/>
  <text x="40" y="288" font-size="10.5" fill="#475569">3 instantanés : 00 h · 12 h · 23 h.</text>
  <text x="40" y="306" font-size="10.5" fill="#475569">Intérêt = nb d'OC changés (DJ/SA/</text>
  <text x="40" y="322" font-size="10.5" fill="#475569">INT) + ⚇ re-groupements de nœuds.</text>
  <text x="40" y="340" font-size="10.5" fill="#475569">Clic = bulle · double-clic = topo.</text>

  <!-- ============================ MAP ============================ -->
  <rect x="292" y="12" width="686" height="736" rx="4" fill="#e6f0fb" stroke="#c7d2fe"/>

  <!-- neighbours (pays voisins, bords plus foncés) -->
  <g fill="#e2e6ea" stroke="#94a3b8" stroke-width="1">
    <polygon points="720,12 978,12 978,330 808,300 770,172 700,118"/>
    <polygon points="808,300 978,330 978,560 742,512 800,420"/>
    <polygon points="300,612 740,560 720,748 300,748"/>
  </g>

  <!-- France métropolitaine (plan de masse, nord en haut) -->
  <polygon points="560,78 700,120 770,175 805,300 800,420 740,510 630,560 500,548 430,470 452,360 412,255 350,255 430,215 495,150"
           fill="#ffffff" stroke="#64748b" stroke-width="1.4"/>
  <ellipse cx="842" cy="572" rx="14" ry="26" fill="#ffffff" stroke="#64748b" stroke-width="1.4"/>

  <!-- map header: hour selector + coord coverage -->
  <rect x="304" y="24" width="150" height="24" rx="5" fill="#ffffff" stroke="#cbd5e1"/>
  <text x="316" y="40" font-size="11" fill="#334155">🕛</text>
  <text x="337" y="40" font-size="11" fill="#94a3b8">00 h</text>
  <rect x="362" y="27" width="34" height="18" rx="3" fill="#2563eb"/>
  <text x="379" y="40" font-size="11" fill="#ffffff" text-anchor="middle">12 h</text>
  <text x="421" y="40" font-size="11" fill="#94a3b8">23 h</text>
  <rect x="744" y="24" width="222" height="22" rx="5" fill="#ffffff" stroke="#cbd5e1"/>
  <text x="855" y="39" font-size="11" fill="#475569" text-anchor="middle" font-family="monospace">coord. : layout (4723/4811, 98%)</text>

  <!-- (4) inter-substation connections (faint, voltage-coloured) -->
  <g stroke-width="1.1" stroke-opacity="0.34" fill="none" stroke-linecap="round">
    <line x1="610" y1="205" x2="520" y2="230" stroke="#2f9e44"/>
    <line x1="610" y1="205" x2="700" y2="260" stroke="#2f9e44"/>
    <line x1="560" y1="500" x2="650" y2="330" stroke="#e2462f"/>
    <line x1="650" y1="330" x2="730" y2="360" stroke="#e2462f"/>
    <line x1="730" y1="360" x2="760" y2="300" stroke="#4263eb"/>
    <line x1="700" y1="470" x2="610" y2="480" stroke="#e2462f"/>
    <line x1="560" y1="400" x2="640" y2="430" stroke="#f59f00"/>
    <line x1="500" y1="440" x2="550" y2="500" stroke="#2f9e44"/>
    <line x1="590" y1="150" x2="530" y2="170" stroke="#e2462f"/>
    <line x1="470" y1="360" x2="420" y2="400" stroke="#1098ad"/>
    <line x1="650" y1="330" x2="560" y2="300" stroke="#1098ad"/>
  </g>

  <!-- (3) substation disks coloured by voltage -->
  <g stroke="#ffffff" stroke-width="0.8">
    <circle cx="610" cy="205" r="6.5" fill="#e2462f"/>
    <circle cx="520" cy="230" r="5" fill="#2f9e44"/>
    <circle cx="700" cy="260" r="5" fill="#2f9e44"/>
    <circle cx="560" cy="300" r="5" fill="#1098ad"/>
    <circle cx="650" cy="330" r="5" fill="#e2462f"/>
    <circle cx="470" cy="360" r="5" fill="#4263eb"/>
    <circle cx="730" cy="360" r="6.5" fill="#2f9e44"/>
    <circle cx="560" cy="400" r="5" fill="#f59f00"/>
    <circle cx="640" cy="430" r="5" fill="#1098ad"/>
    <circle cx="500" cy="440" r="5" fill="#2f9e44"/>
    <circle cx="700" cy="470" r="6.5" fill="#4263eb"/>
    <circle cx="610" cy="480" r="5" fill="#e2462f"/>
    <circle cx="560" cy="500" r="7" fill="#2f9e44"/>
    <circle cx="660" cy="520" r="5" fill="#1098ad"/>
    <circle cx="470" cy="300" r="5" fill="#2f9e44"/>
    <circle cx="760" cy="300" r="5" fill="#4263eb"/>
    <circle cx="420" cy="400" r="5" fill="#1098ad"/>
    <circle cx="590" cy="150" r="5" fill="#2f9e44"/>
    <circle cx="680" cy="180" r="5" fill="#4263eb"/>
    <circle cx="530" cy="170" r="6.5" fill="#e2462f"/>
    <circle cx="760" cy="420" r="5" fill="#2f9e44"/>
    <circle cx="590" cy="360" r="5" fill="#4263eb"/>
    <circle cx="500" cy="390" r="5" fill="#1098ad"/>
    <circle cx="842" cy="572" r="5" fill="#1098ad"/>
  </g>

  <!-- top-10 active VLs: gold halo + rank -->
  <g fill="none" stroke="#f4b400" stroke-width="2.6">
    <circle cx="560" cy="500" r="12"/>
    <circle cx="730" cy="360" r="11"/>
    <circle cx="610" cy="205" r="11"/>
    <circle cx="700" cy="470" r="11"/>
    <circle cx="530" cy="170" r="11"/>
  </g>
  <g font-size="9" font-weight="bold" fill="#92600a" text-anchor="middle">
    <text x="560" y="481">1</text><text x="730" y="343">2</text>
    <text x="610" y="188">3</text><text x="700" y="453">4</text>
    <text x="530" y="153">5</text>
  </g>

  <!-- (6) info bubble on click -->
  <line x1="455" y1="555" x2="555" y2="503" stroke="#94a3b8" stroke-width="1" stroke-dasharray="3 2"/>
  <rect x="306" y="556" width="232" height="116" rx="6" fill="#ffffff" stroke="#0e7490" stroke-width="1.4"/>
  <text x="318" y="576" font-size="12" font-weight="bold" fill="#0f172a">CONCAP3 — 225 kV</text>
  <text x="318" y="596" font-size="11" fill="#334155">OC changés sur la journée : <tspan font-weight="bold">22</tspan></text>
  <text x="318" y="614" font-size="11" fill="#334155">DJ 6 · SA 14 · INT 2</text>
  <text x="318" y="632" font-size="11" fill="#334155">⚇ re-groupements de nœuds : 2</text>
  <text x="318" y="652" font-size="10.5" fill="#64748b">rang #1 · double-clic → topologie du poste</text>

  <!-- (9) exploration bar (appears on double-click → maneuver editor) -->
  <rect x="300" y="700" width="668" height="40" rx="6" fill="#f0f9ff" stroke="#7dd3fc"/>
  <text x="312" y="716" font-size="10.5" fill="#0c4a6e" font-weight="bold">Départ</text>
  <text x="356" y="716" font-size="10.5" fill="#94a3b8">00 h</text>
  <rect x="380" y="706" width="28" height="16" rx="3" fill="#2563eb"/><text x="394" y="718" font-size="10" fill="#fff" text-anchor="middle">12 h</text>
  <text x="416" y="716" font-size="10.5" fill="#94a3b8">23 h</text>
  <text x="312" y="733" font-size="10.5" fill="#0c4a6e" font-weight="bold">Retenir comme cible</text>
  <text x="430" y="733" font-size="10.5" fill="#94a3b8">00 h</text>
  <rect x="454" y="723" width="28" height="16" rx="3" fill="#2563eb"/><text x="468" y="735" font-size="10" fill="#fff" text-anchor="middle">12 h</text>
  <text x="490" y="733" font-size="10.5" fill="#94a3b8">23 h</text>
  <rect x="560" y="710" width="120" height="24" rx="4" fill="#ffffff" stroke="#94a3b8"/>
  <text x="620" y="726" font-size="10.5" fill="#334155" text-anchor="middle">niveau : 225 kV ▾</text>
  <text x="700" y="724" font-size="10.5" fill="#0e7490" font-weight="bold">→ ouvre l'éditeur de manœuvre</text>

  <!-- ============================ RIGHT PANEL ============================ -->
  <rect x="988" y="12" width="280" height="736" rx="6" fill="#f4f5f7" stroke="#cbd5e1"/>

  <!-- (7) filtering legend -->
  <text x="1004" y="36" font-size="13" font-weight="bold" fill="#111827">Légende — tensions</text>
  <rect x="1150" y="22" width="46" height="20" rx="4" fill="#ffffff" stroke="#94a3b8"/>
  <text x="1173" y="36" font-size="10" fill="#334155" text-anchor="middle">tout</text>
  <rect x="1200" y="22" width="52" height="20" rx="4" fill="#ffffff" stroke="#94a3b8"/>
  <text x="1226" y="36" font-size="10" fill="#334155" text-anchor="middle">aucun</text>
  <g font-size="11" fill="#334155">
    <rect x="1004" y="50" width="14" height="14" rx="2" fill="#e2462f"/><text x="1026" y="62">400 kV</text>
    <rect x="1004" y="70" width="14" height="14" rx="2" fill="#2f9e44"/><text x="1026" y="82">225 kV</text>
    <rect x="1004" y="90" width="14" height="14" rx="2" fill="#f59f00"/><text x="1026" y="102">150 kV</text>
    <rect x="1004" y="110" width="14" height="14" rx="2" fill="#1098ad"/><text x="1026" y="122">90 kV</text>
    <rect x="1004" y="130" width="14" height="14" rx="2" fill="#4263eb"/><text x="1026" y="142">63 kV</text>
  </g>
  <rect x="1110" y="50" width="16" height="16" rx="3" fill="#2563eb"/>
  <text x="1115" y="63" font-size="11" fill="#fff">✓</text>
  <text x="1132" y="63" font-size="11" fill="#334155">Lignes</text>
  <text x="1004" y="162" font-size="10" fill="#64748b">clic = filtrer · double-clic = isoler</text>

  <line x1="1004" y1="178" x2="1252" y2="178" stroke="#d1d5db"/>

  <!-- (8) ranking of most active VLs -->
  <text x="1004" y="200" font-size="13" font-weight="bold" fill="#1e3a8a">Classement — VL les plus actifs</text>
  <g font-size="10.5">
    <rect x="1004" y="210" width="248" height="24" rx="4" fill="#fffbeb" stroke="#fcd34d"/>
    <text x="1014" y="226" fill="#111827"><tspan font-weight="bold">1 ·</tspan> CONCAP3 225kV — 22 ⚇2</text>
    <rect x="1004" y="238" width="248" height="24" rx="4" fill="#ffffff" stroke="#e5e7eb"/>
    <text x="1014" y="254" fill="#111827"><tspan font-weight="bold">2 ·</tspan> SSUSU7 225kV — 18</text>
    <rect x="1004" y="266" width="248" height="24" rx="4" fill="#ffffff" stroke="#e5e7eb"/>
    <text x="1014" y="282" fill="#111827"><tspan font-weight="bold">3 ·</tspan> PALUE5 400kV — 15 ⚇1</text>
    <rect x="1004" y="294" width="248" height="24" rx="4" fill="#ffffff" stroke="#e5e7eb"/>
    <text x="1014" y="310" fill="#111827"><tspan font-weight="bold">4 ·</tspan> B.MON 63kV — 11</text>
    <rect x="1004" y="322" width="248" height="24" rx="4" fill="#ffffff" stroke="#e5e7eb"/>
    <text x="1014" y="338" fill="#111827"><tspan font-weight="bold">5 ·</tspan> CHALOL 225kV — 9</text>
  </g>
  <text x="1004" y="364" font-size="10" fill="#64748b">clic sur une ligne → ouvre la topologie</text>

  <!-- coordinates download -->
  <rect x="1004" y="706" width="248" height="28" rx="5" fill="#ffffff" stroke="#94a3b8"/>
  <text x="1128" y="724" font-size="11" fill="#334155" text-anchor="middle">⬇ coordonnées (postes_rte_geo.json)</text>

  <!-- ============================ CALLOUTS ============================ -->
  <g font-size="13" font-weight="bold" text-anchor="middle">
    <circle cx="248" cy="131" r="12" fill="#dc2626"/><text x="248" y="136" fill="#fff">1</text>
    <circle cx="372" cy="430" r="12" fill="#dc2626"/><text x="372" y="435" fill="#fff">2</text>
    <circle cx="752" cy="343" r="12" fill="#dc2626"/><text x="752" y="348" fill="#fff">3</text>
    <circle cx="672" cy="262" r="12" fill="#dc2626"/><text x="672" y="267" fill="#fff">4</text>
    <circle cx="446" cy="36" r="12" fill="#dc2626"/><text x="446" y="41" fill="#fff">5</text>
    <circle cx="318" cy="540" r="12" fill="#dc2626"/><text x="318" y="545" fill="#fff">6</text>
    <circle cx="1240" cy="63" r="12" fill="#dc2626"/><text x="1240" y="68" fill="#fff">7</text>
    <circle cx="1240" cy="200" r="12" fill="#dc2626"/><text x="1240" y="205" fill="#fff">8</text>
    <circle cx="952" cy="720" r="12" fill="#dc2626"/><text x="952" y="725" fill="#fff">9</text>
  </g>
</svg>
